<svg width="18" height="18" viewBox="0 0 18 18" fill="none" xmlns="http://www.w3.org/2000/svg">
<g id="Closed Session" clip-path="url(#clip0_43_2864)">
<path id="layer2" d="M9 17.4375C13.6599 17.4375 17.4375 13.6599 17.4375 9C17.4375 4.3401 13.6599 0.5625 9 0.5625C4.3401 0.5625 0.5625 4.3401 0.5625 9C0.5625 13.6599 4.3401 17.4375 9 17.4375Z" stroke="white" stroke-width="1.125" stroke-miterlimit="10"/>
<path id="layer1" d="M6.75 6.8985C6.75 6.08822 7.37044 4.78125 9.13219 4.78125C10.8939 4.78125 11.25 6.36412 11.25 6.8985C11.25 7.43287 11.0841 8.04937 10.109 9.02419C9.13416 9.999 9 10.5055 9 10.9688V11.5312" stroke="white" stroke-width="1.125" stroke-miterlimit="10"/>
<path id="layer1_2" d="M9 13.7812C9.31066 13.7812 9.5625 13.5294 9.5625 13.2188C9.5625 12.9081 9.31066 12.6562 9 12.6562C8.68934 12.6562 8.4375 12.9081 8.4375 13.2188C8.4375 13.5294 8.68934 13.7812 9 13.7812Z" stroke="white" stroke-width="0.5625" stroke-miterlimit="10"/>
</g>
<defs>
<clipPath id="clip0_43_2864">
<rect width="18" height="18" fill="white"/>
</clipPath>
</defs>
</svg>
