<svg width="24" height="24" viewBox="0 0 24 24" fill="none" xmlns="http://www.w3.org/2000/svg">
<g id="Frame">
<path id="layer2" d="M20.7375 11.8125C20.9111 11.2154 20.9995 10.5968 21 9.975C21 5.5125 16.4625 1.875 10.875 1.875C5.2875 1.875 0.75 5.5125 0.75 9.975C0.75 12.2625 1.9125 14.2875 3.825 15.7875L1.5 20.25L8.1 17.775C9.01088 17.9784 9.9417 18.079 10.875 18.075L12.1875 18" stroke="white" stroke-width="1.5" stroke-linecap="round" stroke-linejoin="round"/>
<path id="layer1" d="M17.625 13.875V19.125M20.25 16.5H15" stroke="white" stroke-width="1.5" stroke-linecap="round" stroke-linejoin="round"/>
<path id="layer1_2" d="M17.625 22.125C20.7316 22.125 23.25 19.6066 23.25 16.5C23.25 13.3934 20.7316 10.875 17.625 10.875C14.5184 10.875 12 13.3934 12 16.5C12 19.6066 14.5184 22.125 17.625 22.125Z" stroke="white" stroke-width="1.5" stroke-linecap="round" stroke-linejoin="round"/>
</g>
</svg>
