<svg width="40" height="40" viewBox="0 0 40 40" fill="none" xmlns="http://www.w3.org/2000/svg">
<rect x="0.5" y="0.5" width="39" height="39" rx="19.5" fill="#1B1C24"/>
<rect x="0.5" y="0.5" width="39" height="39" rx="19.5" stroke="#2A2D34"/>
<path d="M21.125 12.125C21.125 11.5027 20.6223 11 20 11C19.3777 11 18.875 11.5027 18.875 12.125V20.6574L16.2945 18.077C15.8551 17.6375 15.1414 17.6375 14.702 18.077C14.2625 18.5164 14.2625 19.2301 14.702 19.6695L19.202 24.1695C19.6414 24.609 20.3551 24.609 20.7945 24.1695L25.2945 19.6695C25.734 19.2301 25.734 18.5164 25.2945 18.077C24.8551 17.6375 24.1414 17.6375 23.702 18.077L21.125 20.6574V12.125ZM13.25 23.375C12.009 23.375 11 24.384 11 25.625V26.75C11 27.991 12.009 29 13.25 29H26.75C27.991 29 29 27.991 29 26.75V25.625C29 24.384 27.991 23.375 26.75 23.375H23.1816L21.5891 24.9676C20.7102 25.8465 19.2863 25.8465 18.4074 24.9676L16.8184 23.375H13.25ZM26.1875 25.3438C26.4113 25.3438 26.6259 25.4326 26.7841 25.5909C26.9424 25.7491 27.0312 25.9637 27.0312 26.1875C27.0312 26.4113 26.9424 26.6259 26.7841 26.7841C26.6259 26.9424 26.4113 27.0312 26.1875 27.0312C25.9637 27.0312 25.7491 26.9424 25.5909 26.7841C25.4326 26.6259 25.3438 26.4113 25.3438 26.1875C25.3438 25.9637 25.4326 25.7491 25.5909 25.5909C25.7491 25.4326 25.9637 25.3438 26.1875 25.3438Z" fill="#02B2FE"/>
</svg>
