<svg width="20" height="20" viewBox="0 0 20 20" fill="none" xmlns="http://www.w3.org/2000/svg">
<g id="Frame">
<path id="layer1" d="M9.23099 2C8.57359 3.23979 8.32285 4.65381 8.51404 6.04306C8.70524 7.4323 9.32874 8.72683 10.2968 9.74445C11.2649 10.7621 12.5288 11.4515 13.9106 11.7159C15.2925 11.9802 16.7227 11.806 18 11.2179C17.7678 12.6986 17.1239 14.0849 16.1413 15.2196C15.1587 16.3542 13.8768 17.1918 12.4409 17.6374C11.005 18.0829 9.47254 18.1186 8.01731 17.7404C6.56208 17.3622 5.24229 16.5852 4.2076 15.4976C3.17291 14.4099 2.46471 13.0551 2.1633 11.5868C1.86189 10.1184 1.97933 8.59529 2.50231 7.19008C3.02529 5.78486 3.93288 4.55379 5.12217 3.63645C6.31145 2.7191 7.73486 2.15219 9.23099 2Z" stroke="white" stroke-width="1.5" stroke-miterlimit="10" stroke-linecap="round" stroke-linejoin="round"/>
</g>
</svg>
