<svg width="24" height="24" viewBox="0 0 24 24" fill="none" xmlns="http://www.w3.org/2000/svg">
<g id="Frame" clip-path="url(#clip0_43_3351)">
<path id="layer2" d="M10.6495 13.4625C10.4755 14.0766 10.4463 14.7227 10.5642 15.35C10.6822 15.9772 10.9442 16.5686 11.3295 17.0775C11.7148 17.5864 12.2129 17.9989 12.7847 18.2826C13.3564 18.5663 13.9863 18.7135 14.6245 18.7125H16.837L20.2495 22.125V18.5625C21.2129 18.2954 22.0464 17.6876 22.5953 16.852C23.1441 16.0165 23.3708 15.0101 23.2333 14.0199C23.0958 13.0298 22.6033 12.1232 21.8476 11.4689C21.0918 10.8145 20.1242 10.4569 19.1245 10.4625H18.862" stroke="white" stroke-width="1.5" stroke-linecap="round" stroke-linejoin="round"/>
<path id="layer1" d="M13.8753 2.21252H6.37532C5.05618 2.22276 3.78259 2.6963 2.77721 3.55037C1.77182 4.40443 1.09858 5.58469 0.875194 6.88482C0.651805 8.18495 0.89247 9.52223 1.55512 10.6629C2.21777 11.8036 3.26025 12.6751 4.50032 13.125V17.5875L8.62532 13.4625H13.8753C15.3672 13.4625 16.7979 12.8699 17.8528 11.815C18.9077 10.7601 19.5003 9.32937 19.5003 7.83752C19.5003 6.34568 18.9077 4.91494 17.8528 3.86005C16.7979 2.80516 15.3672 2.21252 13.8753 2.21252Z" stroke="white" stroke-width="1.5" stroke-linecap="round" stroke-linejoin="round"/>
</g>
<defs>
<clipPath id="clip0_43_3351">
<rect width="24" height="24" fill="white"/>
</clipPath>
</defs>
</svg>
