<svg width="24" height="24" viewBox="0 0 24 24" fill="none" xmlns="http://www.w3.org/2000/svg">
<g id="Frame">
<path id="layer2" d="M20.7375 12.1875C20.9111 11.5904 20.9995 10.9718 21 10.35C21 5.8875 16.4625 2.25 10.875 2.25C5.2875 2.25 0.75 5.8875 0.75 10.35C0.75 12.6375 1.9125 14.6625 3.825 16.1625L1.5 20.625L8.1 18.15C9.01093 18.3531 9.94171 18.4537 10.875 18.45L12.1875 18.375" stroke="white" stroke-width="1.5" stroke-linecap="round" stroke-linejoin="round"/>
<path id="layer1" d="M17.625 22.5C20.7316 22.5 23.25 19.9816 23.25 16.875C23.25 13.7684 20.7316 11.25 17.625 11.25C14.5184 11.25 12 13.7684 12 16.875C12 19.9816 14.5184 22.5 17.625 22.5Z" stroke="white" stroke-width="1.5" stroke-linecap="round" stroke-linejoin="round"/>
<path id="layer1_2" d="M19.9121 15.75L16.9121 18.75L15.4121 17.25" stroke="white" stroke-width="1.5" stroke-linecap="round" stroke-linejoin="round"/>
</g>
</svg>
