<svg width="40" height="40" viewBox="0 0 40 40" fill="none" xmlns="http://www.w3.org/2000/svg">
<path d="M0.5 20C0.5 9.23045 9.23045 0.5 20 0.5C30.7696 0.5 39.5 9.23045 39.5 20C39.5 30.7696 30.7696 39.5 20 39.5C9.23045 39.5 0.5 30.7696 0.5 20Z" fill="#1B1C24"/>
<path d="M0.5 20C0.5 9.23045 9.23045 0.5 20 0.5C30.7696 0.5 39.5 9.23045 39.5 20C39.5 30.7696 30.7696 39.5 20 39.5C9.23045 39.5 0.5 30.7696 0.5 20Z" stroke="#2A2D34"/>
<g clip-path="url(#clip0_104_1881)">
<path d="M21.6673 19.166H16.6673M18.334 22.4993H16.6673M23.334 15.8327H16.6673M26.6673 15.666V24.3327C26.6673 25.7328 26.6673 26.4329 26.3948 26.9677C26.1552 27.4381 25.7727 27.8205 25.3023 28.0602C24.7675 28.3327 24.0674 28.3327 22.6673 28.3327H17.334C15.9339 28.3327 15.2338 28.3327 14.699 28.0602C14.2286 27.8205 13.8462 27.4381 13.6065 26.9677C13.334 26.4329 13.334 25.7328 13.334 24.3327V15.666C13.334 14.2659 13.334 13.5658 13.6065 13.031C13.8462 12.5606 14.2286 12.1782 14.699 11.9385C15.2338 11.666 15.9339 11.666 17.334 11.666H22.6673C24.0674 11.666 24.7675 11.666 25.3023 11.9385C25.7727 12.1782 26.1552 12.5606 26.3948 13.031C26.6673 13.5658 26.6673 14.2659 26.6673 15.666Z" stroke="#02B2FE" stroke-width="1.5" stroke-linecap="round" stroke-linejoin="round"/>
</g>
<defs>
<clipPath id="clip0_104_1881">
<rect width="16" height="20" fill="white" transform="translate(12 10)"/>
</clipPath>
</defs>
</svg>
