<svg width="187" height="40" viewBox="0 0 187 40" fill="none" xmlns="http://www.w3.org/2000/svg">
<g clip-path="url(#clip0_104_1828)">
<path d="M7.75276 30.1085C6.14035 29.1783 4.86904 27.938 3.96981 26.2946C3.07059 24.6822 2.60547 22.8527 2.60547 20.8682C2.60547 17.8295 3.59772 15.3178 5.64423 13.3023C7.65973 11.2868 10.1714 10.2636 13.1791 10.2636C15.5977 10.2636 17.6752 10.9147 19.4427 12.2481C21.2101 13.5814 22.4194 15.3489 23.0396 17.5504H19.8458C19.2566 16.2481 18.3574 15.2248 17.1481 14.4806C15.9388 13.7364 14.6365 13.3644 13.1481 13.3644C11.0706 13.3644 9.33415 14.0775 7.9388 15.5349C6.54345 16.9613 5.86128 18.7597 5.86128 20.8992C5.86128 22.2946 6.17136 23.5659 6.79152 24.7132C7.41167 25.8605 8.27989 26.7597 9.39617 27.4109C10.5124 28.062 11.7528 28.4031 13.1481 28.4031C14.6365 28.4031 15.9388 28.031 17.1171 27.2558C18.2954 26.4806 19.1636 25.4264 19.8148 24.093H23.0396C22.4194 26.3566 21.2101 28.1551 19.4117 29.4884C17.6132 30.8217 15.5357 31.5039 13.1481 31.5039C11.1636 31.4729 9.36516 31.0078 7.75276 30.1085Z" fill="white"/>
<path d="M59.0085 30.6667C57.7992 30.1395 56.869 29.3644 56.1868 28.3411C55.5047 27.3178 55.1326 26.1395 55.1016 24.7752H58.2333C58.2954 25.9535 58.8225 26.8837 59.7527 27.5349C60.683 28.1861 61.8613 28.4961 63.3186 28.4961C64.745 28.4961 65.8923 28.2171 66.7915 27.6589C67.6597 27.1008 68.0938 26.3256 68.0938 25.3333C68.0938 24.9613 68.0318 24.6202 67.9388 24.3101C67.8147 24 67.6287 23.7519 67.3496 23.5349C67.0706 23.3178 66.7915 23.1318 66.5124 22.9768C66.2333 22.8217 65.8612 22.6977 65.3961 22.5737C64.931 22.4496 64.5279 22.3566 64.1868 22.2946C63.8457 22.2326 63.3806 22.1395 62.8225 22.0465C62.1713 21.9535 61.6752 21.8605 61.3031 21.7675C60.962 21.7054 60.4659 21.5814 59.8768 21.4264C59.2876 21.2713 58.7915 21.0853 58.4504 20.9302C58.1093 20.7752 57.7062 20.5271 57.2721 20.2171C56.838 19.907 56.5279 19.5969 56.3109 19.2558C56.0938 18.9147 55.8768 18.4806 55.7217 17.9535C55.5667 17.4264 55.4737 16.8372 55.4737 16.1861C55.4737 15.3178 55.6597 14.5426 56.0318 13.8295C56.4039 13.1163 56.9 12.4651 57.5822 11.969C58.2333 11.4419 59.0706 11.0388 60.0008 10.7597C60.931 10.4806 61.9853 10.3256 63.1326 10.3256C65.4271 10.3256 67.2876 10.8837 68.6519 12.031C70.0473 13.1473 70.7605 14.6977 70.7915 16.6202H67.7837C67.7217 15.907 67.5047 15.2558 67.1326 14.7597C66.7605 14.2326 66.2023 13.8605 65.5202 13.5814C64.838 13.3023 64.0318 13.1783 63.1016 13.1783C62.1713 13.1783 61.3651 13.3023 60.683 13.5194C60.0008 13.7675 59.4737 14.1085 59.1326 14.5426C58.7605 15.0078 58.5744 15.5039 58.5744 16.093C58.5744 16.4961 58.6675 16.8682 58.8845 17.1783C59.1016 17.4884 59.3186 17.7364 59.5667 17.9225C59.8147 18.1085 60.2178 18.2946 60.745 18.4496C61.2721 18.6047 61.7062 18.7287 62.0783 18.7907C62.4504 18.8527 62.9775 18.9457 63.6287 19.0698C64.3419 19.1628 64.838 19.2558 65.1791 19.3178C65.5202 19.3799 66.0163 19.5039 66.6364 19.6589C67.2876 19.814 67.7837 20 68.1248 20.155C68.4659 20.3101 68.9 20.5892 69.3341 20.8992C69.7992 21.2093 70.1403 21.5504 70.3574 21.9535C70.5744 22.3256 70.7915 22.8217 70.9465 23.3799C71.1326 23.938 71.2256 24.5582 71.2256 25.2403C71.2256 27.1318 70.4814 28.6512 69.024 29.7985C67.5667 30.9457 65.6132 31.5039 63.2256 31.5039C61.6132 31.4729 60.2178 31.1938 59.0085 30.6667Z" fill="white"/>
<path d="M78.9783 30.1085C77.3349 29.1783 76.0326 27.938 75.1024 26.3256C74.1721 24.7132 73.707 22.9147 73.707 20.8992C73.707 17.8295 74.7303 15.3178 76.7768 13.3023C78.8233 11.2868 81.397 10.2946 84.4667 10.2946C86.4822 10.2946 88.3427 10.7597 89.9861 11.6589C91.6295 12.5892 92.9318 13.8295 93.8621 15.4419C94.7923 17.0543 95.2574 18.8837 95.2574 20.8682C95.2574 23.907 94.2342 26.4186 92.1876 28.4341C90.1411 30.4496 87.5675 31.4729 84.4667 31.4729C82.4512 31.4729 80.6218 31.0078 78.9783 30.1085ZM89.8621 26.2636C91.2884 24.8372 92.0016 23.0388 92.0016 20.8682C92.0016 18.6977 91.2884 16.8992 89.8621 15.4729C88.4357 14.0465 86.6373 13.3333 84.4977 13.3333C82.3582 13.3333 80.5287 14.0465 79.1334 15.4729C77.738 16.8992 76.9939 18.6977 76.9939 20.8682C76.9939 23.0388 77.707 24.8372 79.1334 26.2636C80.5597 27.6899 82.3582 28.4031 84.4977 28.4031C86.6373 28.4031 88.4357 27.6899 89.8621 26.2636Z" fill="white"/>
<path d="M98.6055 3.44186H101.799V31.0078H98.6055V3.44186Z" fill="white"/>
<path d="M109.613 30.1085C107.97 29.1783 106.667 27.938 105.737 26.3256C104.807 24.7132 104.342 22.9147 104.342 20.8992C104.342 17.8295 105.365 15.3178 107.412 13.3023C109.458 11.2868 112.032 10.2946 115.101 10.2946C117.117 10.2946 118.977 10.7597 120.621 11.6589C122.264 12.5892 123.567 13.8295 124.497 15.4419C125.427 17.0543 125.892 18.8837 125.892 20.8682C125.892 23.907 124.869 26.4186 122.822 28.4341C120.776 30.4496 118.202 31.4729 115.101 31.4729C113.086 31.4729 111.257 31.0078 109.613 30.1085ZM120.497 26.2636C121.923 24.8372 122.636 23.0388 122.636 20.8682C122.636 18.6977 121.923 16.8992 120.497 15.4729C119.07 14.0465 117.272 13.3333 115.132 13.3333C112.993 13.3333 111.164 14.0465 109.768 15.4729C108.373 16.8992 107.629 18.6977 107.629 20.8682C107.629 23.0388 108.342 24.8372 109.768 26.2636C111.195 27.6899 112.993 28.4031 115.132 28.4031C117.272 28.4031 119.07 27.6899 120.497 26.2636Z" fill="white"/>
<path d="M148.9 10.7287V28.1861C148.9 31.4729 148.001 34.0465 146.234 35.938C144.466 37.8295 142.016 38.7597 138.947 38.7597C136.466 38.7597 134.389 38.1395 132.683 36.9302C130.978 35.7209 129.861 34.0155 129.334 31.845H132.528C132.993 33.0853 133.799 34.0775 134.947 34.7907C136.125 35.5039 137.458 35.845 138.947 35.845C140.993 35.845 142.668 35.1938 143.908 33.9225C145.148 32.6512 145.768 30.8837 145.768 28.6512V27.4109C143.846 29.4264 141.365 30.4496 138.389 30.4496C135.567 30.4496 133.179 29.4884 131.257 27.5659C129.334 25.6434 128.373 23.2558 128.373 20.4341C128.373 18.5737 128.807 16.8682 129.675 15.3488C130.544 13.7985 131.753 12.5892 133.272 11.6899C134.792 10.7907 136.497 10.3566 138.358 10.3566C139.939 10.3566 141.396 10.6667 142.761 11.3178C144.125 11.969 145.272 12.8372 146.202 13.9535L146.73 10.7907L148.9 10.7287ZM142.327 26.3876C143.412 25.7985 144.249 24.9612 144.838 23.907C145.427 22.8527 145.737 21.6744 145.737 20.3411C145.737 18.3256 145.086 16.6512 143.753 15.3178C142.42 14.0155 140.745 13.3333 138.73 13.3333C136.714 13.3333 135.009 13.9845 133.675 15.3178C132.342 16.6512 131.66 18.3256 131.66 20.3101C131.66 22.2946 132.342 23.938 133.675 25.2713C135.009 26.6047 136.714 27.2558 138.73 27.2558C140.032 27.2868 141.241 27.0078 142.327 26.3876Z" fill="white"/>
<path d="M153.736 3.53488H157.209V7.1938H153.736V3.53488ZM153.86 10.7287H157.054V31.0077H153.86V10.7287Z" fill="white"/>
<path d="M165.583 30.1085C163.97 29.1783 162.699 27.938 161.8 26.2946C160.87 24.6822 160.436 22.8527 160.436 20.8682C160.436 17.8295 161.428 15.3178 163.474 13.3023C165.49 11.2868 168.001 10.2636 171.009 10.2636C173.428 10.2636 175.505 10.9147 177.273 12.2481C179.04 13.5814 180.249 15.3489 180.87 17.5504H177.676C177.087 16.2481 176.187 15.2248 174.978 14.4806C173.8 13.7364 172.467 13.3644 170.978 13.3644C168.901 13.3644 167.164 14.0775 165.769 15.5349C164.374 16.9613 163.691 18.7597 163.691 20.8992C163.691 22.2946 164.001 23.5659 164.622 24.7132C165.242 25.8605 166.11 26.7597 167.226 27.4109C168.343 28.062 169.583 28.4031 170.978 28.4031C172.467 28.4031 173.769 28.031 174.947 27.2558C176.125 26.4806 177.025 25.4264 177.645 24.093H180.87C180.249 26.3566 179.04 28.1551 177.242 29.4884C175.443 30.8217 173.366 31.5039 170.978 31.5039C168.994 31.4729 167.195 31.0078 165.583 30.1085Z" fill="white"/>
<path d="M33.1474 31.7209C31.9071 31.7209 30.8528 31.2868 29.9846 30.4186C29.1164 29.5504 28.6823 28.4961 28.6823 27.2248V23.907C28.6823 23.5969 28.6203 23.3178 28.4652 23.0388C28.3102 22.7907 28.0931 22.5736 27.8141 22.4186C27.535 22.2636 27.2559 22.2015 26.9458 22.2015H26.2637V19.4419H26.9458C27.442 19.4419 27.8451 19.2868 28.1862 18.9457C28.5272 18.6357 28.6823 18.2015 28.6823 17.7364V14.4806C28.6823 13.2403 29.1164 12.186 29.9846 11.3178C30.8528 10.4496 31.9071 10.0155 33.1474 10.0155H36.2172V12.8682H34.1086C33.4575 12.8682 32.9303 13.0853 32.4962 13.5194C32.0621 13.9535 31.8451 14.5116 31.8451 15.1938V17.6124C31.8451 18.3876 31.659 19.0698 31.2559 19.6899C30.9148 20.186 30.5117 20.5891 30.0776 20.8682C30.5427 21.1473 30.9458 21.5194 31.2559 22.0155C31.659 22.6357 31.8451 23.3178 31.8451 24.093V26.5736C31.8451 27.2248 32.0621 27.7519 32.4962 28.186C32.9303 28.6202 33.4885 28.8372 34.1086 28.8372H36.2482V31.6899L33.1474 31.7209Z" fill="#02B2FE"/>
<path d="M42.2031 31.7209V28.8682H44.3116C44.9628 28.8682 45.521 28.6512 45.9551 28.2171C46.3892 27.7829 46.6372 27.2248 46.6372 26.6047V24.124C46.6372 23.5969 46.7303 23.1318 46.9163 22.6667C47.1023 22.2015 47.3504 21.8295 47.6605 21.4884C47.8775 21.2403 48.1256 21.0543 48.4047 20.8992C47.9396 20.6202 47.5365 20.2171 47.2264 19.7209C46.8543 19.1008 46.6372 18.4186 46.6372 17.6434V15.2248C46.6372 14.5736 46.4202 13.9845 45.9861 13.5504C45.552 13.1163 44.9938 12.8992 44.3116 12.8992H42.2341V10.0465H45.3039C46.1101 10.0465 46.8853 10.2326 47.5675 10.6357C48.2496 11.0388 48.8078 11.5659 49.2109 12.2481C49.614 12.9302 49.831 13.6744 49.831 14.5116V17.7984C49.831 17.9845 49.862 18.1705 49.893 18.3256C49.9551 18.4806 50.0171 18.6357 50.1411 18.7907C50.2651 18.9457 50.3892 19.0698 50.5442 19.1938C50.6992 19.3178 50.8543 19.3798 51.0093 19.4419C51.1954 19.5039 51.3504 19.5039 51.5365 19.5039H52.2186V22.2636H51.5365C51.0403 22.2636 50.6372 22.4186 50.3272 22.7597C50.0171 23.1008 49.831 23.4729 49.831 23.938V27.2868C49.831 28.5271 49.3969 29.6124 48.5287 30.4806C47.6605 31.3488 46.5752 31.7829 45.3349 31.7829L42.2031 31.7209Z" fill="#02B2FE"/>
</g>
<defs>
<clipPath id="clip0_104_1828">
<rect width="186.357" height="40" fill="white"/>
</clipPath>
</defs>
</svg>
