<svg width="167" height="33" viewBox="0 0 167 33" fill="none" xmlns="http://www.w3.org/2000/svg">
<g clip-path="url(#clip0_43_3260)">
<path d="M4.82206 24.9166C3.31153 24.0474 2.12054 22.8885 1.27814 21.3529C0.435728 19.8464 0 18.137 0 16.2827C0 13.4434 0.929553 11.0966 2.84676 9.21336C4.73491 7.33012 7.08784 6.37402 9.90555 6.37402C12.1713 6.37402 14.1176 6.98245 15.7734 8.22828C17.4291 9.47411 18.562 11.1256 19.143 13.1826H16.151C15.5991 11.9658 14.7567 11.0097 13.6238 10.3143C12.4909 9.61897 11.2708 9.2713 9.8765 9.2713C7.93025 9.2713 6.30353 9.93768 4.99635 11.2994C3.68916 12.6321 3.0501 14.3126 3.0501 16.3117C3.0501 17.6155 3.34058 18.8033 3.92155 19.8753C4.50252 20.9473 5.31588 21.7875 6.36163 22.396C7.40737 23.0044 8.56932 23.3231 9.8765 23.3231C11.2708 23.3231 12.4909 22.9754 13.5947 22.2511C14.6986 21.5268 15.5119 20.5417 16.1219 19.2959H19.143C18.562 21.4109 17.4291 23.0913 15.7443 24.3371C14.0595 25.583 12.1132 26.2204 9.8765 26.2204C8.01739 26.1914 6.33258 25.7568 4.82206 24.9166Z" fill="white"/>
<path d="M52.8388 25.4382C51.7059 24.9456 50.8345 24.2213 50.1954 23.2652C49.5563 22.3091 49.2078 21.2081 49.1787 19.9333H52.1126C52.1707 21.0343 52.6645 21.9035 53.536 22.5119C54.4074 23.1203 55.5113 23.4101 56.8766 23.4101C58.2128 23.4101 59.2876 23.1493 60.13 22.6278C60.9434 22.1063 61.35 21.382 61.35 20.4548C61.35 20.1072 61.2919 19.7885 61.2048 19.4987C61.0886 19.209 60.9143 18.9772 60.6529 18.7744C60.3914 18.5716 60.13 18.3978 59.8686 18.2529C59.6071 18.108 59.2585 17.9921 58.8228 17.8763C58.3871 17.7604 58.0095 17.6734 57.6899 17.6155C57.3704 17.5576 56.9347 17.4706 56.4118 17.3837C55.8018 17.2968 55.337 17.2099 54.9884 17.123C54.6689 17.065 54.2041 16.9491 53.6522 16.8043C53.1003 16.6594 52.6355 16.4856 52.316 16.3407C51.9964 16.1958 51.6188 15.9641 51.2121 15.6743C50.8054 15.3846 50.5149 15.0949 50.3116 14.7762C50.1083 14.4575 49.9049 14.0518 49.7597 13.5593C49.6144 13.0668 49.5273 12.5163 49.5273 11.9079C49.5273 11.0966 49.7016 10.3723 50.0502 9.70593C50.3987 9.03956 50.8635 8.43113 51.5026 7.96756C52.1126 7.47503 52.8969 7.09838 53.7684 6.83763C54.6398 6.57687 55.6275 6.43201 56.7023 6.43201C58.8519 6.43201 60.5948 6.95352 61.8729 8.02551C63.1801 9.06853 63.8482 10.5172 63.8773 12.3135H61.0596C61.0015 11.6471 60.7981 11.0387 60.4495 10.5751C60.101 10.0826 59.5781 9.7349 58.939 9.47415C58.2999 9.21339 57.5447 9.0975 56.6732 9.0975C55.8018 9.0975 55.0465 9.21339 54.4074 9.4162C53.7684 9.64798 53.2746 9.96669 52.955 10.3723C52.6064 10.8069 52.4321 11.2705 52.4321 11.8209C52.4321 12.1976 52.5193 12.5453 52.7226 12.835C52.926 13.1247 53.1293 13.3565 53.3617 13.5303C53.5941 13.7042 53.9717 13.878 54.4655 14.0229C54.9594 14.1677 55.366 14.2836 55.7146 14.3416C56.0632 14.3995 56.557 14.4864 57.1671 14.6023C57.8352 14.6892 58.2999 14.7762 58.6195 14.8341C58.939 14.8921 59.4038 15.0079 59.9848 15.1528C60.5948 15.2977 61.0596 15.4715 61.3791 15.6164C61.6986 15.7612 62.1053 16.022 62.512 16.3117C62.9477 16.6015 63.2672 16.9202 63.4706 17.2968C63.6739 17.6445 63.8773 18.108 64.0225 18.6295C64.1968 19.1511 64.2839 19.7305 64.2839 20.3679C64.2839 22.1353 63.5868 23.5549 62.2215 24.6269C60.8562 25.6989 59.0262 26.2204 56.7894 26.2204C55.2789 26.1914 53.9717 25.9307 52.8388 25.4382Z" fill="white"/>
<path d="M71.5466 24.9166C70.0071 24.0474 68.787 22.8885 67.9156 21.3819C67.0441 19.8753 66.6084 18.1949 66.6084 16.3116C66.6084 13.4433 67.567 11.0965 69.4842 9.21331C71.4014 7.33008 73.8124 6.40295 76.6882 6.40295C78.5764 6.40295 80.3193 6.83755 81.8589 7.67776C83.3984 8.54694 84.6185 9.70585 85.4899 11.2124C86.3614 12.719 86.7971 14.4284 86.7971 16.2827C86.7971 19.122 85.8385 21.4688 83.9213 23.352C82.0041 25.2353 79.5931 26.1914 76.6882 26.1914C74.8001 26.1914 73.0862 25.7568 71.5466 24.9166ZM81.7427 21.3239C83.0789 19.9912 83.747 18.3108 83.747 16.2827C83.747 14.2546 83.0789 12.5742 81.7427 11.2414C80.4064 9.90866 78.7216 9.24229 76.7173 9.24229C74.7129 9.24229 72.9991 9.90866 71.6919 11.2414C70.3847 12.5742 69.6875 14.2546 69.6875 16.2827C69.6875 18.3108 70.3557 19.9912 71.6919 21.3239C73.0281 22.6567 74.7129 23.3231 76.7173 23.3231C78.7216 23.3231 80.4064 22.6567 81.7427 21.3239Z" fill="white"/>
<path d="M89.9346 0H92.9266V25.7568H89.9346V0Z" fill="white"/>
<path d="M100.247 24.9166C98.7073 24.0474 97.4872 22.8885 96.6158 21.3819C95.7443 19.8753 95.3086 18.1949 95.3086 16.3116C95.3086 13.4433 96.2672 11.0965 98.1844 9.21331C100.102 7.33008 102.513 6.40295 105.388 6.40295C107.277 6.40295 109.019 6.83755 110.559 7.67776C112.099 8.54694 113.319 9.70585 114.19 11.2124C115.062 12.719 115.497 14.4284 115.497 16.2827C115.497 19.122 114.539 21.4688 112.622 23.352C110.704 25.2353 108.293 26.1914 105.388 26.1914C103.5 26.1914 101.786 25.7568 100.247 24.9166ZM110.443 21.3239C111.779 19.9912 112.447 18.3108 112.447 16.2827C112.447 14.2546 111.779 12.5742 110.443 11.2414C109.107 9.90866 107.422 9.24229 105.417 9.24229C103.413 9.24229 101.699 9.90866 100.392 11.2414C99.0849 12.5742 98.3877 14.2546 98.3877 16.2827C98.3877 18.3108 99.0559 19.9912 100.392 21.3239C101.728 22.6567 103.413 23.3231 105.417 23.3231C107.422 23.3231 109.107 22.6567 110.443 21.3239Z" fill="white"/>
<path d="M137.051 6.80861V23.1203C137.051 26.1914 136.209 28.5961 134.553 30.3635C132.897 32.1308 130.603 33 127.727 33C125.403 33 123.457 32.4205 121.859 31.2906C120.261 30.1607 119.216 28.5672 118.722 26.5391H121.714C122.15 27.698 122.905 28.6251 123.98 29.2915C125.083 29.9579 126.333 30.2766 127.727 30.2766C129.644 30.2766 131.213 29.6681 132.375 28.4803C133.537 27.2924 134.118 25.6409 134.118 23.5549V22.396C132.317 24.2792 129.993 25.2353 127.204 25.2353C124.561 25.2353 122.324 24.3371 120.523 22.5408C118.722 20.7445 117.821 18.5136 117.821 15.8771C117.821 14.1387 118.228 12.5452 119.041 11.1256C119.855 9.67692 120.988 8.54698 122.411 7.70677C123.834 6.86656 125.432 6.46094 127.175 6.46094C128.656 6.46094 130.022 6.75067 131.3 7.35909C132.578 7.96752 133.653 8.77876 134.524 9.82178L135.018 6.86656L137.051 6.80861ZM130.893 21.4399C131.91 20.8894 132.694 20.1071 133.246 19.122C133.798 18.137 134.088 17.036 134.088 15.7902C134.088 13.9069 133.478 12.3424 132.229 11.0966C130.98 9.87973 129.412 9.24232 127.523 9.24232C125.635 9.24232 124.038 9.85075 122.789 11.0966C121.54 12.3424 120.9 13.9069 120.9 15.7612C120.9 17.6155 121.54 19.151 122.789 20.3968C124.038 21.6427 125.635 22.2511 127.523 22.2511C128.744 22.2801 129.876 22.0193 130.893 21.4399Z" fill="white"/>
<path d="M141.583 0.0871582H144.836V3.50595H141.583V0.0871582ZM141.699 6.80884H144.691V25.757H141.699V6.80884Z" fill="white"/>
<path d="M152.679 24.9166C151.169 24.0474 149.978 22.8885 149.136 21.3529C148.264 19.8464 147.857 18.137 147.857 16.2827C147.857 13.4434 148.787 11.0966 150.704 9.21336C152.592 7.33012 154.945 6.37402 157.763 6.37402C160.029 6.37402 161.975 6.98245 163.631 8.22828C165.287 9.47411 166.419 11.1256 167 13.1826H164.008C163.456 11.9658 162.614 11.0097 161.481 10.3143C160.377 9.61897 159.128 9.2713 157.734 9.2713C155.788 9.2713 154.161 9.93768 152.854 11.2994C151.547 12.6321 150.908 14.3126 150.908 16.3117C150.908 17.6155 151.198 18.8033 151.779 19.8753C152.36 20.9473 153.173 21.7875 154.219 22.396C155.265 23.0044 156.427 23.3231 157.734 23.3231C159.128 23.3231 160.348 22.9754 161.452 22.2511C162.556 21.5268 163.398 20.5417 163.979 19.2959H167C166.419 21.4109 165.287 23.0913 163.602 24.3371C161.917 25.583 159.971 26.2204 157.734 26.2204C155.875 26.1914 154.19 25.7568 152.679 24.9166Z" fill="white"/>
<path d="M28.6128 26.4232C27.4509 26.4232 26.4632 26.0175 25.6499 25.2063C24.8365 24.3951 24.4298 23.41 24.4298 22.2221V19.122C24.4298 18.8323 24.3718 18.5715 24.2265 18.3108C24.0813 18.079 23.8779 17.8762 23.6165 17.7313C23.3551 17.5865 23.0936 17.5285 22.8031 17.5285H22.1641V14.9499H22.8031C23.2679 14.9499 23.6455 14.8051 23.9651 14.4864C24.2846 14.1966 24.4298 13.791 24.4298 13.3564V10.3143C24.4298 9.15538 24.8365 8.17031 25.6499 7.35907C26.4632 6.54783 27.4509 6.14221 28.6128 6.14221H31.4886V8.80771H29.5133C28.9033 8.80771 28.4095 9.01052 28.0028 9.41614C27.5961 9.82175 27.3928 10.3433 27.3928 10.9807V13.2405C27.3928 13.9649 27.2185 14.6023 26.8409 15.1817C26.5213 15.6453 26.1437 16.0219 25.737 16.2827C26.1728 16.5434 26.5504 16.8911 26.8409 17.3547C27.2185 17.9341 27.3928 18.5715 27.3928 19.2959V21.6137C27.3928 22.2221 27.5961 22.7146 28.0028 23.1203C28.4095 23.5259 28.9324 23.7287 29.5133 23.7287H31.5177V26.3942L28.6128 26.4232Z" fill="#02B2FE"/>
<path d="M37.095 26.4232V23.7577H39.0703C39.6803 23.7577 40.2032 23.5549 40.6098 23.1493C41.0165 22.7437 41.2489 22.2222 41.2489 21.6427V19.3249C41.2489 18.8324 41.3361 18.3978 41.5103 17.9632C41.6846 17.5286 41.917 17.1809 42.2075 16.8622C42.4109 16.6304 42.6432 16.4566 42.9047 16.3117C42.4689 16.051 42.0913 15.6743 41.8008 15.2108C41.4522 14.6313 41.2489 13.9939 41.2489 13.2696V11.0097C41.2489 10.4013 41.0456 9.85081 40.6389 9.44519C40.2322 9.03957 39.7093 8.83676 39.0703 8.83676H37.124V6.17126H39.9998C40.7551 6.17126 41.4813 6.3451 42.1204 6.72175C42.7594 7.09839 43.2823 7.59093 43.6599 8.22833C44.0376 8.86573 44.2409 9.56108 44.2409 10.3433V13.4145C44.2409 13.5883 44.27 13.7621 44.299 13.907C44.3571 14.0519 44.4152 14.1967 44.5314 14.3416C44.6476 14.4865 44.7638 14.6023 44.909 14.7182C45.0543 14.8341 45.1995 14.8921 45.3448 14.95C45.519 15.008 45.6643 15.008 45.8386 15.008H46.4776V17.5865H45.8386C45.3738 17.5865 44.9962 17.7314 44.7057 18.0501C44.4152 18.3688 44.2409 18.7165 44.2409 19.1511V22.2801C44.2409 23.439 43.8342 24.4531 43.0209 25.2643C42.2075 26.0756 41.1908 26.4812 40.0289 26.4812L37.095 26.4232Z" fill="#02B2FE"/>
</g>
<defs>
<clipPath id="clip0_43_3260">
<rect width="167" height="33" fill="white"/>
</clipPath>
</defs>
</svg>
