<svg width="20" height="20" viewBox="0 0 20 20" fill="none" xmlns="http://www.w3.org/2000/svg">
<g id="Frame" clip-path="url(#clip0_43_3177)">
<path id="layer1" d="M18.4063 14.6876L15.1562 12.5626C14.8304 12.3561 14.4375 12.2831 14.0592 12.3588C13.681 12.4344 13.3464 12.6529 13.125 12.9688C12.375 13.8751 11.4687 15.3751 8.0625 11.9688C4.65625 8.56257 6.125 7.62507 7.03125 6.87507C7.34717 6.65369 7.56565 6.31911 7.64131 5.94083C7.71696 5.56256 7.64397 5.16968 7.4375 4.84382L5.3125 1.59382C5.03125 1.18757 4.65625 0.531322 3.78125 0.656322C2.90625 0.781322 0.625 2.06257 0.625 4.87507C0.625 7.68757 2.84375 11.1251 5.875 14.1563C8.90625 17.1876 12.3438 19.3751 15.125 19.3751C17.9063 19.3751 19.25 16.8751 19.3438 16.2501C19.4375 15.6251 18.8125 14.9688 18.4063 14.6876Z" stroke="#02B2FE" stroke-width="1.5" stroke-miterlimit="10" stroke-linecap="round" stroke-linejoin="round"/>
</g>
<defs>
<clipPath id="clip0_43_3177">
<rect width="20" height="20" fill="white"/>
</clipPath>
</defs>
</svg>
